<svg width="53" height="53" viewBox="0 0 53 53" fill="none" xmlns="http://www.w3.org/2000/svg">
<g clip-path="url(#clip0_12_290)" filter="url(#filter0_d_12_290)">
<path d="M4 22.5005C4 34.9279 14.0728 45.0004 26.4996 45C38.9272 45.0004 49 34.9279 49 22.5005C49.0008 10.0731 38.9272 0 26.4996 0C14.0728 0 4 10.0735 4 22.5005Z" fill="#FA6E51"/>
<path d="M48.9467 23.9755L38.4499 13.4787H38.4498L33.0247 8.05368C32.969 7.99778 32.9022 7.95331 32.8283 7.92237C32.7547 7.89161 32.6751 7.875 32.5937 7.875H21.625C21.2885 7.875 21.0156 8.1479 21.0156 8.48435V11.5312H14.3125C13.976 11.5312 13.7031 11.8041 13.7031 12.1406V36.5156C13.7031 36.7218 13.8124 36.8953 13.9692 37.0055C14.0099 37.0633 21.2425 44.2959 21.3003 44.3366C21.3194 44.3638 21.3465 44.3824 21.3691 44.4054C23.0178 44.7901 24.7338 45 26.4996 44.9999C38.4312 45.0004 48.1863 35.7144 48.9467 23.9755Z" fill="#E8573F"/>
<path d="M39.2495 14.3435C39.2186 14.2695 39.174 14.2029 39.1182 14.1471L33.0248 8.05368C32.969 7.99787 32.9024 7.95331 32.8284 7.92237C32.7547 7.89161 32.6751 7.875 32.5937 7.875H21.625C21.2884 7.875 21.0156 8.14781 21.0156 8.48435V11.5313H14.3125C13.9759 11.5313 13.7031 11.8041 13.7031 12.1406V36.5156C13.7031 36.8521 13.9759 37.1249 14.3125 37.1249H31.3749C31.7115 37.1249 31.9843 36.8521 31.9843 36.5156V33.4688H38.6874C39.024 33.4688 39.2968 33.1959 39.2968 32.8594V14.5782C39.2969 14.4968 39.2803 14.4171 39.2495 14.3435ZM33.2032 9.95537L37.2165 13.9687H33.2032V9.95537ZM30.7656 35.9062H14.9219V12.75H24.6719V18.2344C24.6719 18.5709 24.9447 18.8438 25.2812 18.8438H30.7656V35.9062ZM29.904 17.625H25.8907V13.6116L29.904 17.625ZM31.9844 32.25V18.2344C31.9844 18.153 31.9678 18.0735 31.937 17.9997C31.9061 17.9257 31.8615 17.8591 31.8057 17.8033L25.7123 11.7099C25.6565 11.6541 25.5899 11.6096 25.5159 11.5786C25.4422 11.5479 25.3626 11.5313 25.2812 11.5313H22.2343V9.09378H31.9844V14.5782C31.9844 14.9147 32.2572 15.1875 32.5937 15.1875H38.0781V32.25H31.9844Z" fill="#F4F6F9"/>
</g>
<defs>
<filter id="filter0_d_12_290" x="0" y="0" width="53" height="53" filterUnits="userSpaceOnUse" color-interpolation-filters="sRGB">
<feFlood flood-opacity="0" result="BackgroundImageFix"/>
<feColorMatrix in="SourceAlpha" type="matrix" values="0 0 0 0 0 0 0 0 0 0 0 0 0 0 0 0 0 0 127 0" result="hardAlpha"/>
<feOffset dy="4"/>
<feGaussianBlur stdDeviation="2"/>
<feComposite in2="hardAlpha" operator="out"/>
<feColorMatrix type="matrix" values="0 0 0 0 0 0 0 0 0 0 0 0 0 0 0 0 0 0 0.25 0"/>
<feBlend mode="normal" in2="BackgroundImageFix" result="effect1_dropShadow_12_290"/>
<feBlend mode="normal" in="SourceGraphic" in2="effect1_dropShadow_12_290" result="shape"/>
</filter>
<clipPath id="clip0_12_290">
<rect width="45" height="45" fill="white" transform="translate(4)"/>
</clipPath>
</defs>
</svg>
